<?xml version="1.0" encoding="UTF-8" ?>
<!DOCTYPE svg PUBLIC "-//W3C//DTD SVG 1.1//EN" "http://www.w3.org/Graphics/SVG/1.1/DTD/svg11.dtd">
<svg width="163pt" height="255pt" viewBox="0 0 163 255" version="1.1" xmlns="http://www.w3.org/2000/svg">
<g id="#040404ff">
<path fill="#040404" opacity="1.00" d=" M 69.41 6.58 C 90.15 4.38 111.78 7.75 130.19 17.82 C 141.58 23.88 151.75 32.86 157.48 44.59 C 160.23 50.29 162.11 56.56 162.02 62.94 C 161.96 106.97 162.03 150.99 161.99 195.01 C 160.79 207.14 154.56 218.44 145.72 226.71 C 131.82 240.08 112.85 247.08 93.94 249.31 C 70.50 251.89 45.74 247.29 26.05 233.91 C 12.26 224.50 1.07 209.31 1.02 192.07 C 0.98 153.37 0.99 114.68 1.02 75.98 C 1.28 68.74 0.24 61.35 2.19 54.26 C 5.09 42.30 12.86 31.94 22.53 24.52 C 35.98 14.14 52.62 8.43 69.41 6.58 M 60.94 17.86 C 44.32 21.53 27.77 29.75 17.72 43.92 C 60.27 44.07 102.83 44.02 145.38 43.94 C 139.77 35.36 131.08 29.43 122.10 24.82 C 103.32 15.42 81.35 14.09 60.94 17.86 M 12.30 54.13 C 11.49 57.35 10.89 60.63 10.98 63.96 C 11.20 74.29 10.83 84.63 11.02 94.97 C 58.01 95.02 104.99 95.02 151.98 94.97 C 152.07 84.29 151.99 73.61 152.03 62.93 C 152.12 59.94 151.42 57.01 150.72 54.12 C 104.59 53.92 58.44 53.91 12.30 54.13 M 11.02 105.03 C 10.96 120.34 10.96 135.66 11.02 150.97 C 58.01 151.02 104.99 151.02 151.98 150.97 C 152.04 135.66 152.04 120.34 151.98 105.03 C 104.99 104.98 58.01 104.98 11.02 105.03 M 11.02 161.03 C 10.92 168.02 11.01 175.01 10.98 182.00 C 11.05 188.95 10.48 196.08 12.68 202.79 C 14.09 202.89 15.49 202.98 16.90 203.01 C 58.60 202.99 100.29 203.00 141.99 203.00 C 144.76 203.04 147.54 203.05 150.31 202.77 C 151.16 199.59 152.17 196.40 152.03 193.07 C 151.99 182.39 152.07 171.71 151.98 161.03 C 104.99 160.98 58.01 160.98 11.02 161.03 M 18.43 213.08 C 24.48 220.65 32.16 226.90 40.93 231.06 C 57.85 239.68 77.51 241.40 96.14 239.04 C 114.60 236.45 132.90 227.99 144.57 213.08 C 102.53 212.95 60.47 212.95 18.43 213.08 Z" />
</g>
<g id="#feda2eff">
<path fill="#feda2e" opacity="1.00" d=" M 60.94 17.86 C 81.35 14.09 103.32 15.42 122.10 24.82 C 131.08 29.43 139.77 35.36 145.38 43.94 C 102.83 44.02 60.27 44.07 17.72 43.92 C 27.77 29.75 44.32 21.53 60.94 17.86 Z" />
<path fill="#feda2e" opacity="1.00" d=" M 12.30 54.13 C 58.44 53.91 104.59 53.92 150.72 54.12 C 151.42 57.01 152.12 59.94 152.03 62.93 C 151.99 73.61 152.07 84.29 151.98 94.97 C 104.99 95.02 58.01 95.02 11.02 94.97 C 10.83 84.63 11.20 74.29 10.98 63.96 C 10.89 60.63 11.49 57.35 12.30 54.13 Z" />
<path fill="#feda2e" opacity="1.00" d=" M 11.02 105.03 C 58.01 104.98 104.99 104.98 151.98 105.03 C 152.04 120.34 152.04 135.66 151.98 150.97 C 104.99 151.02 58.01 151.02 11.02 150.97 C 10.96 135.66 10.96 120.34 11.02 105.03 Z" />
<path fill="#feda2e" opacity="1.00" d=" M 11.02 161.03 C 58.01 160.98 104.99 160.98 151.98 161.03 C 152.07 171.71 151.99 182.39 152.03 193.07 C 152.17 196.40 151.16 199.59 150.31 202.77 C 147.54 203.05 144.76 203.04 141.99 203.00 C 100.29 203.00 58.60 202.99 16.90 203.01 C 15.49 202.98 14.09 202.89 12.68 202.79 C 10.48 196.08 11.05 188.95 10.98 182.00 C 11.01 175.01 10.92 168.02 11.02 161.03 Z" />
<path fill="#feda2e" opacity="1.00" d=" M 18.43 213.08 C 60.47 212.95 102.53 212.95 144.57 213.08 C 132.90 227.99 114.60 236.45 96.14 239.04 C 77.51 241.40 57.85 239.68 40.93 231.06 C 32.16 226.90 24.48 220.65 18.43 213.08 Z" />
</g>
</svg>
