<?xml version="1.0" standalone="no"?>
<!DOCTYPE svg PUBLIC "-//W3C//DTD SVG 20010904//EN"
 "http://www.w3.org/TR/2001/REC-SVG-20010904/DTD/svg10.dtd">
<svg version="1.0" xmlns="http://www.w3.org/2000/svg"
 width="1360.000000pt" height="1360.000000pt" viewBox="0 0 1360.000000 1360.000000"
 preserveAspectRatio="xMidYMid meet">
<metadata>
Created by potrace 1.14, written by Peter Selinger 2001-2017
</metadata>
<g transform="translate(0.000000,1360.000000) scale(0.100000,-0.100000)"
fill="#000000" stroke="none">
<path d="M6470 13273 c-25 -1 -103 -8 -175 -14 -1159 -97 -2226 -543 -2923
-1223 -409 -400 -656 -811 -791 -1316 -31 -117 -50 -243 -60 -395 -5 -80 -8
-1647 -6 -3630 2 -3197 3 -3500 19 -3610 106 -765 607 -1492 1377 -1999 652
-428 1423 -693 2289 -786 249 -27 716 -37 960 -21 747 50 1413 219 2018 511
457 222 801 467 1143 816 398 407 642 870 752 1423 l21 106 3 3565 c4 3643 4
3707 -33 3904 -68 367 -259 773 -524 1116 -93 120 -384 412 -515 517 -235 187
-448 322 -750 475 -637 323 -1296 500 -2080 558 -125 9 -610 11 -725 3z m800
-538 c494 -39 967 -147 1397 -321 345 -140 706 -346 993 -568 143 -110 369
-338 468 -471 l82 -110 -157 -6 c-218 -9 -5600 -11 -6176 -2 l-467 6 17 26
c46 72 181 229 293 341 467 469 1159 830 1928 1005 160 36 492 83 700 99 250
19 686 19 922 1z m3033 -2022 l195 -6 21 -91 c12 -50 26 -116 33 -146 14 -66
19 -806 11 -1482 l-6 -458 -3752 0 -3752 0 -5 118 c-3 64 -3 484 -1 932 4 849
4 861 49 1057 l16 73 197 3 c419 6 6809 7 6994 0z m259 -3328 c1 -338 1 -892
0 -1230 l-4 -615 -3753 0 -3753 0 -3 618 c-2 339 -2 893 -1 1230 l4 612 3753
0 3753 0 4 -615z m-7 -2377 c10 -10 15 -1731 5 -1837 -10 -101 -72 -367 -90
-385 -12 -12 -6914 -22 -7178 -11 l-154 7 -13 32 c-16 38 -51 211 -66 321 -12
92 -21 1352 -12 1667 l6 207 116 4 c223 6 7379 2 7386 -5z m-395 -2778 c0 -18
-175 -213 -291 -325 -264 -255 -545 -451 -899 -629 -507 -254 -1040 -401
-1660 -458 -182 -16 -855 -16 -1025 0 -626 62 -1166 214 -1676 473 -334 169
-600 357 -856 603 -113 108 -303 320 -303 337 0 5 1459 9 3355 9 2186 0 3355
-3 3355 -10z"/>
</g>
</svg>
